<?xml version="1.0" standalone="no"?>
<!DOCTYPE svg PUBLIC "-//W3C//DTD SVG 20010904//EN"
 "http://www.w3.org/TR/2001/REC-SVG-20010904/DTD/svg10.dtd">
<svg version="1.0" xmlns="http://www.w3.org/2000/svg"
 width="512.000000pt" height="512.000000pt" viewBox="0 0 512.000000 512.000000"
 preserveAspectRatio="xMidYMid meet">
<metadata>
Created by potrace 1.14, written by Peter Selinger 2001-2017
</metadata>
<g transform="translate(0.000000,512.000000) scale(0.100000,-0.100000)"
fill="#000000" stroke="none">
<path d="M2325 5109 c-679 -65 -1307 -399 -1742 -926 -394 -478 -603 -1094
-579 -1708 31 -836 450 -1585 1148 -2052 427 -285 974 -439 1493 -419 646 24
1235 274 1692 719 667 648 929 1580 699 2479 -132 516 -435 991 -853 1335
-516 425 -1197 635 -1858 572z m-275 -1355 c115 -23 248 -92 325 -168 105
-106 180 -284 203 -483 l8 -73 -218 0 -218 0 -4 23 c-2 12 -9 51 -16 87 -32
180 -127 260 -309 260 -165 0 -264 -82 -320 -264 -25 -80 -25 -88 -29 -474 -4
-410 1 -482 39 -596 59 -176 163 -246 365 -246 102 0 170 20 232 66 l32 25 0
205 0 204 -165 0 -165 0 0 170 0 170 390 0 390 0 0 -464 0 -465 -65 -58 c-118
-106 -255 -173 -425 -210 -128 -27 -396 -24 -505 5 -295 80 -482 291 -556 627
-19 88 -22 140 -26 433 -4 223 -1 372 7 450 48 470 274 739 665 791 87 12 266
4 365 -15z m2120 -199 l0 -185 -395 0 -395 0 0 -295 0 -295 55 -1 c30 -1 60
-3 65 -4 6 -1 141 -3 300 -4 l290 -1 0 -185 0 -185 -355 0 -355 0 0 -465 0
-465 -230 0 -230 0 0 1135 0 1135 625 0 625 0 0 -185z"/>
</g>
</svg>
